<svg xmlns="http://www.w3.org/2000/svg" width="55" height="55" viewBox="0 0 55 55">
  <defs>
    <style>
      .cls-1 {
        fill: #825447;
        fill-rule: evenodd;
      }
    </style>
  </defs>
  <path id="Forma_1" data-name="Forma 1" class="cls-1" d="M416.251,348.086a0.861,0.861,0,0,1-1.721,0v-9.232a0.861,0.861,0,0,1,1.721,0v9.232h0Zm-25.782,0a0.859,0.859,0,0,1-1.718,0v-9.232a0.859,0.859,0,0,1,1.718,0v9.232Zm-7.949,11.743a0.856,0.856,0,1,1,0-1.711h39.96a0.856,0.856,0,1,1,0,1.711H382.52ZM396.7,384.4a0.859,0.859,0,0,1-1.718,0V368.779l-2.974,2.961a0.857,0.857,0,0,1-1.215-1.209l4.44-4.423a0.861,0.861,0,0,1,1.467.606V384.4h0Zm5.8,0.855a0.855,0.855,0,1,1,0-1.71h4.44a3.584,3.584,0,0,0,2.531-1.041l0,0a3.565,3.565,0,0,0,0-5.043l0,0a3.576,3.576,0,0,0-2.531-1.042H402.5a0.857,0.857,0,0,1-.859-0.856v-8.843a0.858,0.858,0,0,1,.859-0.856h8.879a0.856,0.856,0,1,1,0,1.711h-8.02V374.7h3.581a5.3,5.3,0,0,1,3.743,1.545l0,0a5.258,5.258,0,0,1,0,7.458l0,0a5.307,5.307,0,0,1-3.743,1.544H402.5ZM375,356.762a0.859,0.859,0,0,1,1.718,0v30.956a3.585,3.585,0,0,0,3.58,3.566h44.4a3.587,3.587,0,0,0,3.581-3.566V356.762a0.86,0.86,0,0,1,1.719,0v30.956a5.306,5.306,0,0,1-5.3,5.28H380.3a5.306,5.306,0,0,1-5.3-5.28V356.762Zm14.61-14.48a0.856,0.856,0,1,1,0,1.712H380.3a3.581,3.581,0,0,0-2.524,1.052l-0.045.043a3.546,3.546,0,0,0-1.012,2.47v3.927h51.561v-3.927a3.547,3.547,0,0,0-1.055-2.513L427.185,345a3.574,3.574,0,0,0-2.485-1.009h-5.875a0.856,0.856,0,1,1,0-1.712H424.7a5.3,5.3,0,0,1,3.682,1.5l0.059,0.056A5.241,5.241,0,0,1,430,347.559v4.781a0.86,0.86,0,0,1-.859.857H375.859A0.858,0.858,0,0,1,375,352.34v-4.781a5.253,5.253,0,0,1,1.506-3.664l0.054-.059a5.289,5.289,0,0,1,3.74-1.556h9.31v0Zm25.781,0H393.046a0.856,0.856,0,1,0,0,1.712h22.345A0.856,0.856,0,1,0,415.391,342.282Z" transform="translate(-375 -338)"/>
</svg>
