<?xml version="1.0" encoding="utf-8"?>
<svg xmlns="http://www.w3.org/2000/svg"
	xmlns:xlink="http://www.w3.org/1999/xlink"
	width="70px" height="70px" viewBox="0 0 70 70">
<g><path fillRule="evenodd" d="M 35 68C 53.2 68 68 53.2 68 35 68 16.8 53.2 2 35 2 16.8 2 2 16.8 2 35 2 53.2 16.8 68 35 68M 35 70C 15.67 70-0 54.33-0 35-0 15.67 15.67-0 35-0 54.33-0 70 15.67 70 35 70 54.33 54.33 70 35 70 35 70 35 70 35 70Z" fill="rgb(255,255,255)"/><path fillRule="evenodd" d="M 35 18.67C 35 18.67 20.23 44.33 20.23 44.33 20.23 44.33 49.77 44.33 49.77 44.33 49.77 44.33 35 18.67 35 18.67" fill="rgb(255,255,255)"/></g></svg>